<svg id="圖層_1" data-name="圖層 1" xmlns="http://www.w3.org/2000/svg" viewBox="0 0 848 239"><defs><style>.cls-1{fill:#c9195f;}</style></defs><title>logo</title><path class="cls-1" d="M79.36,39.64A20.86,20.86,0,0,0,69,37.07q-16.4,0-16.39,20.67v15H75.45V86.12H52.59v84.19H37.07V86.12H20.4V72.78H37.07V57q0-15.33,8.86-24.24T68,23.83q7.14,0,11.34,1.71Z"/><path class="cls-1" d="M118.35,172.6q-21.63,0-34.53-13.67t-12.9-36.24q0-24.57,13.43-38.38T120.63,70.5q21.81,0,34.05,13.43t12.24,37.24q0,23.33-13.19,37.38T118.35,172.6Zm1.14-89q-15,0-23.81,10.24t-8.76,28.24q0,17.34,8.86,27.33t23.71,10q15.15,0,23.29-9.81t8.14-27.9q0-18.28-8.14-28.19T119.49,83.64Z"/><path class="cls-1" d="M218,172.6q-21.62,0-34.53-13.67t-12.9-36.24q0-24.57,13.43-38.38T220.3,70.5q21.81,0,34,13.43t12.23,37.24q0,23.33-13.19,37.38T218,172.6Zm1.14-89q-15,0-23.81,10.24t-8.76,28.24q0,17.34,8.86,27.33t23.71,10q15.15,0,23.29-9.81t8.14-27.9q0-18.28-8.14-28.19T219.15,83.64Z"/><path class="cls-1" d="M360.15,170.31H344.53V153.74h-.38q-10.86,18.85-33.53,18.86-18.37,0-29.38-13.1t-11-35.67q0-24.18,12.19-38.76T314.91,70.5q20.1,0,29.24,15.81h.38V25.92h15.62Zm-15.62-44.1V111.83a27.89,27.89,0,0,0-7.81-20q-7.82-8.19-19.81-8.19-14.28,0-22.48,10.48t-8.19,28.95q0,16.86,7.86,26.62t21.09,9.76q13.05,0,21.2-9.42T344.53,126.21Z"/><path class="cls-1" d="M393.14,156.22h-.38v58.95H377.14V72.78h15.62V89.93h.38q11.52-19.44,33.72-19.43,18.86,0,29.43,13.09t10.57,35.1q0,24.48-11.91,39.19T422.38,172.6Q403.42,172.6,393.14,156.22Zm-.38-39.34V130.5A29,29,0,0,0,400.62,151a26.12,26.12,0,0,0,19.95,8.42q14.19,0,22.24-10.85t8.05-30.19q0-16.29-7.53-25.53T423,83.64q-13.62,0-21.9,9.48T392.76,116.88Z"/><path class="cls-1" d="M547,170.31H531.38V155.07H531q-10.18,17.53-30,17.53-14.57,0-22.81-7.72t-8.24-20.47q0-27.34,32.2-31.82l29.24-4.09q0-24.85-20.1-24.86-17.62,0-31.81,12v-16q14.38-9.14,33.14-9.14Q547,70.5,547,106.88ZM531.38,121l-23.53,3.23q-10.86,1.53-16.38,5.39t-5.53,13.66a14.87,14.87,0,0,0,5.1,11.67q5.1,4.53,13.57,4.52a25,25,0,0,0,19.19-8.14q7.58-8.15,7.58-20.62Z"/><path class="cls-1" d="M642.75,170.31H627.13V114.69q0-31.05-22.67-31a24.59,24.59,0,0,0-19.38,8.81q-7.67,8.8-7.66,22.24v55.62H561.8V72.78h15.62V89h.38q11-18.47,32-18.47,16,0,24.47,10.33t8.48,29.86Z"/><path class="cls-1" d="M740.79,170.31H725.17V153.74h-.38q-10.86,18.85-33.52,18.86-18.39,0-29.38-13.1t-11-35.67q0-24.18,12.19-38.76T695.55,70.5q20.1,0,29.24,15.81h.38V25.92h15.62Zm-15.62-44.1V111.83a27.89,27.89,0,0,0-7.81-20q-7.8-8.19-19.81-8.19-14.28,0-22.47,10.48t-8.19,28.95q0,16.86,7.85,26.62t21.1,9.76q13,0,21.19-9.42T725.17,126.21Z"/><path class="cls-1" d="M827.6,170.31H812V155.07h-.38q-10.2,17.53-30,17.53-14.58,0-22.81-7.72t-8.24-20.47q0-27.34,32.19-31.82L812,108.5q0-24.85-20.1-24.86-17.62,0-31.81,12v-16q14.38-9.14,33.15-9.14,34.38,0,34.38,36.38ZM812,121l-23.53,3.23q-10.85,1.53-16.38,5.39t-5.52,13.66a14.89,14.89,0,0,0,5.09,11.67q5.1,4.53,13.58,4.52a25.07,25.07,0,0,0,19.19-8.14q7.56-8.15,7.57-20.62Z"/></svg>